<svg width="117" height="16" viewBox="0 0 117 16" fill="none" xmlns="http://www.w3.org/2000/svg">
<path d="M4.93304 15.7647H0L6.75662 0H13.0457L19.8257 15.7647H14.7757L13.5834 12.8471H6.14876L4.93304 15.7647ZM8.72049 6.65882L7.80869 8.87059L6.07862 12.8235L13.5834 12.8471L11.0584 6.65882L10.0297 4H9.7258L8.72049 6.65882Z" fill="#CEFE06"/>
<path d="M25.1591 15.7647H20.7638V3.90588H24.8785V7.01176H25.1123C25.4396 5.05882 26.6554 3.67059 28.9933 3.67059C31.5884 3.67059 32.6171 5.38824 32.6171 7.76471V10.1176H28.2218V8.72941C28.2218 7.74118 27.8477 7.38824 26.7021 7.38824C25.5098 7.38824 25.1591 7.74118 25.1591 8.68235V15.7647Z" fill="#CEFE06"/>
<path d="M42.8309 15.7647H39.7449C36.7991 15.7647 35.0456 14.3294 35.0456 11.2471V7.52941H33.3155V3.90588H35.0456V1.85882H39.4409V3.90588H42.8309V7.52941H39.4409V10.6118C39.4409 11.5529 39.7215 11.7882 40.7268 11.7882H42.8309V15.7647Z" fill="#CEFE06"/>
<path d="M48.252 16C45.9842 16 44.4412 14.9176 44.4412 13.0353C44.4412 11.1294 46.0076 10.3059 48.1585 10.0706L53.6526 9.45882V8.56471C53.6526 6.30588 52.6707 5.41176 50.1457 5.41176C47.6675 5.41176 46.3583 6.30588 46.3583 8.35294V8.44706H44.6983V8.35294C44.6983 5.90588 46.709 3.90588 50.2626 3.90588C53.7695 3.90588 55.2658 5.92941 55.2658 8.49412V15.7647H53.7695V12.6353H53.6526C52.9746 14.7765 50.9406 16 48.252 16ZM46.1011 12.9176C46.1011 14.0941 46.8726 14.7059 48.6261 14.7059C51.4316 14.7059 53.6526 13.4588 53.6526 10.6588V10.5647L48.6728 11.1294C46.9428 11.2941 46.1011 11.7176 46.1011 12.9176Z" fill="white"/>
<path d="M60.1219 15.7647H58.462V4.14118H59.9583V7.64706H60.0518C60.3791 5.69412 61.7117 3.90588 64.5874 3.90588C67.1591 3.90588 68.6086 5.50588 68.9827 7.76471H69.0996C69.4269 5.76471 70.8063 3.90588 73.7053 3.90588C76.7213 3.90588 78.2877 6.04706 78.2877 8.98824V15.7647H76.6277V9.22353C76.6277 6.63529 75.5289 5.43529 73.0975 5.43529C70.3153 5.43529 69.1931 7.05882 69.1931 10.1412V15.7647H67.5332V9.22353C67.5332 6.63529 66.4577 5.43529 64.0263 5.43529C61.2208 5.43529 60.1219 7.05882 60.1219 10.1412V15.7647Z" fill="white"/>
<path d="M84.6671 16C82.3993 16 80.8563 14.9176 80.8563 13.0353C80.8563 11.1294 82.4227 10.3059 84.5736 10.0706L90.0677 9.45882V8.56471C90.0677 6.30588 89.0858 5.41176 86.5609 5.41176C84.0826 5.41176 82.7734 6.30588 82.7734 8.35294V8.44706H81.1135V8.35294C81.1135 5.90588 83.1241 3.90588 86.6777 3.90588C90.1846 3.90588 91.6809 5.92941 91.6809 8.49412V15.7647H90.1846V12.6353H90.0677C89.3897 14.7765 87.3557 16 84.6671 16ZM82.5162 12.9176C82.5162 14.0941 83.2877 14.7059 85.0412 14.7059C87.8467 14.7059 90.0677 13.4588 90.0677 10.6588V10.5647L85.088 11.1294C83.3579 11.2941 82.5162 11.7176 82.5162 12.9176Z" fill="white"/>
<path d="M96.5371 15.7647H94.8771V4.14118H96.3734V7.31765H96.4903C96.841 5.45882 98.1502 3.90588 100.558 3.90588C103.224 3.90588 104.393 5.88235 104.393 8.04706V9.2H102.733V8.30588C102.733 6.32941 101.914 5.36471 99.9037 5.36471C97.5657 5.36471 96.5371 6.84706 96.5371 9.45882V15.7647Z" fill="white"/>
<path d="M109.986 16C107.718 16 106.175 14.9176 106.175 13.0353C106.175 11.1294 107.742 10.3059 109.893 10.0706L115.387 9.45882V8.56471C115.387 6.30588 114.405 5.41176 111.88 5.41176C109.402 5.41176 108.092 6.30588 108.092 8.35294V8.44706H106.433V8.35294C106.433 5.90588 108.443 3.90588 111.997 3.90588C115.504 3.90588 117 5.92941 117 8.49412V15.7647H115.504V12.6353H115.387C114.709 14.7765 112.675 16 109.986 16ZM107.835 12.9176C107.835 14.0941 108.607 14.7059 110.36 14.7059C113.166 14.7059 115.387 13.4588 115.387 10.6588V10.5647L110.407 11.1294C108.677 11.2941 107.835 11.7176 107.835 12.9176Z" fill="white"/>
</svg>
